# xmcd
# 
# Track frame offsets:
#     150
#     13651
#     25172
#     32965
#     43117
#     55931
#     68399
#     81814
#     94509
#     111541
#     123661
#     137279
#     149930
#     161812
#     171106
#     184263
#     193078
#     203438
#     217299
#     226683
#     236589
# 
# Disc length: 3291
# 
# Revision: 0
# Processed by: cddbd v1.5.2PL0 Copyright (c) Steve Scherf et al.
# Submitted via: fre:ac v1.0.31
# 
DISCID=2f0cd915
DTITLE=Various Artist - (21 Hits  Volume 3) More Country Stars on CD
DYEAR=0
DGENRE=Country
TTITLE0=T. Grahm Brown - I Tell It Like It Used To Be
TTITLE1=Patsy Cline - Walkin' After Midnight
TTITLE2=Roger Miller - Dang Me
TTITLE3=George Jones - Love's Gonna Live Here
TTITLE4=Mel Street - Lovin' On Back Streets
TTITLE5=Johnny Bond - Hot Rod Lincoln
TTITLE6=Mike Lunsford - I Wish I'd Never Borrowed Anybody's Angel
TTITLE7=Merle Haggard - Swinging Doors
TTITLE8=Porter Wagoner - Teardrops Falling In The Snow
TTITLE9=Mac Wiseman - Going Like Wildfire
TTITLE10=Crowe Brothers - The Winds Are Blowing In Maggie Valley
TTITLE11=Johnny Bush - It's All Over But The Crying
TTITLE12=Marvin Rainwater - Gonna Find Me A Bluebird
TTITLE13=Del Reeves - Good Time Charlies
TTITLE14=Ray Price and Faron Young - Mansion On The Hill
TTITLE15=The Harden Trio - Sneakin' Cross The Border
TTITLE16=Percy Sledge - Mama Tried
TTITLE17=Johnny Darrell - Woman Without Love
TTITLE18=Guy Michell - Singing The Blues
TTITLE19=Dave Dudley - Cowboy Boots
TTITLE20=Billy Joe Royal - I Fought The Law
EXTD=
EXTT0=
EXTT1=
EXTT2=
EXTT3=
EXTT4=
EXTT5=
EXTT6=
EXTT7=
EXTT8=
EXTT9=
EXTT10=
EXTT11=
EXTT12=
EXTT13=
EXTT14=
EXTT15=
EXTT16=
EXTT17=
EXTT18=
EXTT19=
EXTT20=
PLAYORDER=
